<svg width="17" height="19" viewBox="0 0 17 19" fill="none" xmlns="http://www.w3.org/2000/svg">
<path d="M11.8333 7.6672C11.8333 8.55133 11.4821 9.39924 10.857 10.0244C10.2319 10.6496 9.38405 11.0008 8.5 11.0008C7.61594 11.0008 6.7681 10.6496 6.14298 10.0244C5.51786 9.39924 5.16667 8.55133 5.16667 7.6672M1.08545 4.36209H15.9138M1.33333 3.8894C1.11696 4.17791 1 4.52883 1 4.88948V16.0012C1 16.4433 1.17559 16.8672 1.48816 17.1798C1.80072 17.4924 2.22464 17.668 2.66667 17.668H14.3333C14.7754 17.668 15.1993 17.4924 15.5118 17.1798C15.8244 16.8672 16 16.4433 16 16.0012V4.88948C16 4.52883 15.883 4.17791 15.6667 3.8894L14 1.66672C13.8448 1.45971 13.6434 1.29169 13.412 1.17597C13.1806 1.06025 12.9254 1 12.6667 1H4.33333C4.07459 1 3.8194 1.06025 3.58798 1.17597C3.35655 1.29169 3.15525 1.45971 3 1.66672L1.33333 3.8894Z" stroke="#161616" stroke-width="2" stroke-linecap="round"/>
</svg>
