<svg width="26" height="23" viewBox="0 0 26 23" fill="none" xmlns="http://www.w3.org/2000/svg">
<path d="M17.3346 22V19.6667C17.3346 18.429 16.8429 17.242 15.9677 16.3668C15.0925 15.4917 13.9054 15 12.6676 15H5.66704C4.42926 15 3.24218 15.4917 2.36694 16.3668C1.4917 17.242 1 18.429 1 19.6667V22M17.3346 1.14925C18.3354 1.40868 19.2218 1.99306 19.8545 2.81066C20.4872 3.62826 20.8305 4.63279 20.8305 5.66658C20.8305 6.70038 20.4872 7.70491 19.8545 8.52251C19.2218 9.34011 18.3354 9.92449 17.3346 10.1839M24.3352 21.9999V19.6665C24.3344 18.6325 23.9903 17.6281 23.3567 16.8109C22.7232 15.9937 21.8362 15.41 20.8349 15.1515M13.8344 5.66667C13.8344 8.244 11.7449 10.3333 9.16732 10.3333C6.58979 10.3333 4.50028 8.244 4.50028 5.66667C4.50028 3.08934 6.58979 1 9.16732 1C11.7449 1 13.8344 3.08934 13.8344 5.66667Z" stroke="white" stroke-width="2" stroke-linecap="round"/>
</svg>
